<?xml version="1.0" encoding="UTF-8" standalone="no"?>
<svg
   xmlns="http://www.w3.org/2000/svg"
   width="600"
   height="600">
  <rect
     width="600"
     height="600"
     style="fill:#f7df1e;"
     rx="14.750072"
     ry="14.750072" />
  <path
     d="m 424.73137,472.38124 c 8.7647,14.31085 20.16779,24.82987 40.33559,24.82987 16.94233,0 27.76525,-8.46771 27.76525,-20.1678 0,-14.02076 -11.11991,-18.98673 -29.76822,-27.14364 l -10.22203,-4.3858 c -29.50576,-12.57034 -49.1072,-28.3178 -49.1072,-61.60848 0,-30.6661 23.36563,-54.01102 59.88177,-54.01102 25.99712,0 44.68687,9.04789 58.15509,32.73814 l -31.84025,20.44407 c -7.01039,-12.57034 -14.57331,-17.5225 -26.31484,-17.5225 -11.97635,0 -19.5669,7.59745 -19.5669,17.5225 0,12.26644 7.59746,17.23241 25.14068,24.82987 l 10.22203,4.3789 c 34.7411,14.89792 54.35636,30.08593 54.35636,64.23305 0,36.81313 -28.91869,56.98093 -67.75551,56.98093 -37.97348,0 -62.50636,-18.09576 -74.51034,-41.81364 z m -144.44149,3.54318 c 6.42331,11.39618 12.26644,21.03114 26.31483,21.03114 13.43369,0 21.90831,-5.25606 21.90831,-25.69322 V 332.22887 h 40.88813 v 139.58601 c 0,42.33856 -24.82296,61.60848 -61.05593,61.60848 -32.73813,0 -51.69724,-16.94233 -61.33911,-37.34841 z"/>
</svg>
